<svg xmlns="http://www.w3.org/2000/svg" viewBox="0 0 232.72 60.45"><defs><style>.cls-1{fill:#001e61;}.cls-2{fill:#021d49;}.cls-3{fill:#b2292e;}.cls-4{fill:#d7282f;}</style></defs><g id="Layer_2" data-name="Layer 2"><g id="Layer_1-2" data-name="Layer 1"><polygon class="cls-1" points="59.67 0.41 62.4 0.41 71.09 13.43 79.78 0.41 82.5 0.41 82.5 24.27 79.81 24.27 79.81 4.94 71.12 17.72 70.98 17.72 62.3 4.98 62.3 24.27 59.67 24.27 59.67 0.41"/><polygon class="cls-1" points="89.25 0.41 106.5 0.41 106.5 2.86 91.95 2.86 91.95 11.01 104.97 11.01 104.97 13.46 91.95 13.46 91.95 21.81 106.67 21.81 106.67 24.27 89.25 24.27 89.25 0.41"/><polygon class="cls-1" points="118.39 2.9 110.39 2.9 110.39 0.41 129.13 0.41 129.13 2.9 121.12 2.9 121.12 24.27 118.39 24.27 118.39 2.9"/><path class="cls-1" d="M134.17.41h10.26a9.4,9.4,0,0,1,6.78,2.39,6.55,6.55,0,0,1,1.84,4.7v.07c0,3.95-2.72,6.27-6.47,7l7.33,9.75H150.6L143.68,15h-6.81v9.27h-2.7Zm10,12.17c3.58,0,6.14-1.84,6.14-4.91V7.6c0-2.93-2.25-4.7-6.1-4.7h-7.36v9.68Z"/><path class="cls-1" d="M157.76,12.41v-.07a12.17,12.17,0,1,1,24.33-.07v.07a12.17,12.17,0,1,1-24.33.07m21.54,0v-.07c0-5.42-4-9.85-9.41-9.85s-9.34,4.36-9.34,9.78v.07c0,5.42,3.95,9.85,9.41,9.85s9.34-4.37,9.34-9.78"/><path class="cls-1" d="M59.72,36.2H65V60.07H59.72Zm.07-6H64.9v4.33H59.79Z"/><path class="cls-1" d="M69.3,56.59l3.1-3.71a11,11,0,0,0,7.13,2.9c2.15,0,3.44-.86,3.44-2.25v-.07c0-1.33-.82-2-4.81-3-4.8-1.22-7.91-2.55-7.91-7.29v-.07c0-4.33,3.48-7.2,8.36-7.2a13.76,13.76,0,0,1,8.86,3l-2.73,4a11.22,11.22,0,0,0-6.2-2.35c-2,0-3.07.92-3.07,2.08v.07c0,1.57,1,2.08,5.15,3.14,4.84,1.26,7.57,3,7.57,7.16V53c0,4.74-3.62,7.4-8.76,7.4A15.17,15.17,0,0,1,69.3,56.59"/><polygon class="cls-1" points="97.81 41.05 90.54 41.05 90.54 36.2 110.32 36.2 110.32 41.05 103.06 41.05 103.06 60.07 97.81 60.07 97.81 41.05"/><path class="cls-1" d="M119.46,36h4.84l10.23,24H129l-2.18-5.35h-10.1l-2.18,5.35h-5.35Zm5.52,14-3.17-7.74-3.17,7.74Z"/><polygon class="cls-1" points="138.21 36.2 143.05 36.2 154.24 50.9 154.24 36.2 159.42 36.2 159.42 60.07 154.95 60.07 143.39 44.9 143.39 60.07 138.21 60.07 138.21 36.2"/><path class="cls-1" d="M165.15,36.2h11.08a8.58,8.58,0,0,1,6.24,2.12,5.48,5.48,0,0,1,1.64,4.06v.06A5.54,5.54,0,0,1,181,47.59c2.76,1.06,4.47,2.66,4.47,5.87v.07c0,4.36-3.55,6.54-8.94,6.54H165.15Zm10,9.65c2.31,0,3.78-.75,3.78-2.52v-.07c0-1.57-1.23-2.45-3.44-2.45h-5.19v5Zm1.39,9.62c2.32,0,3.72-.82,3.72-2.59v-.07c0-1.6-1.19-2.59-3.89-2.59h-6.07v5.25Z"/><path class="cls-1" d="M189.39,49.84V36.2h5.25V49.71c0,3.88,2,5.9,5.15,5.9s5.15-2,5.15-5.73V36.2h5.25V49.67c0,7.23-4.06,10.78-10.47,10.78s-10.33-3.58-10.33-10.61"/><polygon class="cls-1" points="215.57 36.2 220.82 36.2 220.82 55.3 232.72 55.3 232.72 60.07 215.57 60.07 215.57 36.2"/><polygon class="cls-1" points="23.87 13.89 0 0.4 0 27.31 10.13 33.01 10.13 16.15 23.86 23.77 37.61 16.15 37.61 33.01 47.74 27.31 47.74 0.4 23.87 13.89"/><polygon class="cls-2" points="23.87 13.89 23.87 23.77 37.61 16.15 37.61 33.01 47.74 27.31 47.74 0.4 23.87 13.89"/><polygon class="cls-3" points="47.74 34.83 23.87 48.12 0 34.83 0 46.45 23.86 60.07 23.86 60.07 23.87 60.07 23.87 60.07 23.87 60.07 47.74 46.45 47.74 34.83"/><polygon class="cls-4" points="23.87 48.12 23.87 48.12 0 34.83 0 46.45 23.86 60.07 23.86 60.07 23.87 60.07 23.87 48.12"/></g></g></svg>